<svg width="20" height="20" viewBox="0 0 20 20" fill="none" xmlns="http://www.w3.org/2000/svg">
<path d="M16.875 10.4749V9.51864L18.075 8.46864C18.2962 8.27367 18.4414 8.00678 18.4848 7.71514C18.5283 7.4235 18.4672 7.12588 18.3125 6.87489L16.8375 4.37489C16.7279 4.18505 16.5703 4.02738 16.3805 3.91768C16.1907 3.80798 15.9755 3.75011 15.7563 3.74989C15.6204 3.74885 15.4853 3.76996 15.3563 3.81239L13.8375 4.32489C13.5753 4.15064 13.3018 3.99405 13.0188 3.85614L12.7 2.28114C12.6429 1.99339 12.4863 1.73491 12.2578 1.55095C12.0293 1.36699 11.7433 1.26927 11.45 1.27489H8.525C8.23169 1.26927 7.94574 1.36699 7.71722 1.55095C7.4887 1.73491 7.33216 1.99339 7.275 2.28114L6.95625 3.85614C6.67121 3.99401 6.39561 4.15061 6.13126 4.32489L4.64375 3.78739C4.51332 3.7534 4.37824 3.74074 4.24376 3.74989C4.02455 3.75011 3.80926 3.80798 3.61948 3.91768C3.4297 4.02738 3.27211 4.18505 3.16251 4.37489L1.68751 6.87489C1.54162 7.12551 1.48741 7.41905 1.53416 7.70524C1.58091 7.99143 1.72571 8.25247 1.94376 8.44364L3.12501 9.52489V10.4811L1.94376 11.5311C1.71955 11.7236 1.57079 11.9893 1.52388 12.2811C1.47697 12.5729 1.53494 12.8718 1.68751 13.1249L3.16251 15.6249C3.27211 15.8147 3.4297 15.9724 3.61948 16.0821C3.80926 16.1918 4.02455 16.2497 4.24376 16.2499C4.3796 16.2509 4.5147 16.2298 4.64375 16.1874L6.1625 15.6749C6.42472 15.8491 6.69824 16.0057 6.98126 16.1436L7.3 17.7186C7.35716 18.0064 7.5137 18.2649 7.74222 18.4488C7.97074 18.6328 8.25669 18.7305 8.55 18.7249H11.5C11.7933 18.7305 12.0793 18.6328 12.3078 18.4488C12.5363 18.2649 12.6929 18.0064 12.75 17.7186L13.0688 16.1436C13.3538 16.0058 13.6294 15.8492 13.8938 15.6749L15.4063 16.1874C15.5353 16.2298 15.6704 16.2509 15.8063 16.2499C16.0255 16.2497 16.2407 16.1918 16.4305 16.0821C16.6203 15.9724 16.7779 15.8147 16.8875 15.6249L18.3125 13.1249C18.4584 12.8743 18.5126 12.5807 18.4658 12.2945C18.4191 12.0083 18.2743 11.7473 18.0563 11.5561L16.875 10.4749ZM15.7563 14.9999L13.6125 14.2749C13.1107 14.7 12.5371 15.0322 11.9188 15.2561L11.475 17.4999H8.525L8.08125 15.2811C7.46777 15.0509 6.89733 14.7192 6.39375 14.2999L4.24376 14.9999L2.76875 12.4999L4.46876 10.9999C4.35319 10.3529 4.35319 9.6906 4.46876 9.04364L2.76875 7.49989L4.24376 4.99989L6.38751 5.72489C6.88934 5.29982 7.46288 4.96755 8.08125 4.74364L8.525 2.49989H11.475L11.9188 4.71864C12.5322 4.9489 13.1027 5.2806 13.6063 5.69989L15.7563 4.99989L17.2313 7.49989L15.5313 8.99989C15.6468 9.64685 15.6468 10.3092 15.5313 10.9561L17.2313 12.4999L15.7563 14.9999Z" fill="white"/>
<path d="M10 13.75C9.25832 13.75 8.5333 13.5301 7.91661 13.118C7.29993 12.706 6.81928 12.1203 6.53545 11.4351C6.25162 10.7498 6.17736 9.99584 6.32206 9.26841C6.46675 8.54098 6.8239 7.8728 7.34835 7.34835C7.8728 6.8239 8.54098 6.46675 9.26841 6.32206C9.99584 6.17736 10.7498 6.25162 11.4351 6.53545C12.1203 6.81928 12.706 7.29993 13.118 7.91661C13.5301 8.5333 13.75 9.25832 13.75 10C13.755 10.4939 13.6614 10.9837 13.4748 11.441C13.2881 11.8982 13.0121 12.3136 12.6628 12.6628C12.3136 13.0121 11.8982 13.2881 11.441 13.4748C10.9837 13.6614 10.4939 13.755 10 13.75ZM10 7.5C9.66959 7.4923 9.34105 7.55171 9.03426 7.67462C8.72747 7.79753 8.44879 7.9814 8.2151 8.2151C7.9814 8.44879 7.79753 8.72747 7.67462 9.03426C7.55171 9.34105 7.4923 9.66959 7.5 10C7.4923 10.3304 7.55171 10.6589 7.67462 10.9657C7.79753 11.2725 7.9814 11.5512 8.2151 11.7849C8.44879 12.0186 8.72747 12.2025 9.03426 12.3254C9.34105 12.4483 9.66959 12.5077 10 12.5C10.3304 12.5077 10.6589 12.4483 10.9657 12.3254C11.2725 12.2025 11.5512 12.0186 11.7849 11.7849C12.0186 11.5512 12.2025 11.2725 12.3254 10.9657C12.4483 10.6589 12.5077 10.3304 12.5 10C12.5077 9.66959 12.4483 9.34105 12.3254 9.03426C12.2025 8.72747 12.0186 8.44879 11.7849 8.2151C11.5512 7.9814 11.2725 7.79753 10.9657 7.67462C10.6589 7.55171 10.3304 7.4923 10 7.5Z" fill="white"/>
</svg>
